<svg width="1274" height="1178" xmlns="http://www.w3.org/2000/svg" xmlns:xlink="http://www.w3.org/1999/xlink" xml:space="preserve" overflow="hidden"><g transform="translate(-13 -59)"><g><path d="M100 649.001 348.5 152 951.5 152 1200 649.001 951.5 1146 348.5 1146Z" stroke="#73ACCE" stroke-width="27.5" stroke-linecap="butt" stroke-linejoin="miter" stroke-miterlimit="8" stroke-opacity="1" fill="none" fill-rule="evenodd"/><path d="M348 151 946.582 1146.11" stroke="#73ACCE" stroke-width="27.5" stroke-linecap="butt" stroke-linejoin="miter" stroke-miterlimit="8" stroke-opacity="1" fill="none" fill-rule="evenodd"/><path d="M341 151 1198.84 647.573" stroke="#73ACCE" stroke-width="27.5" stroke-linecap="butt" stroke-linejoin="miter" stroke-miterlimit="8" stroke-opacity="1" fill="none" fill-rule="evenodd"/><path d="M337 151 348.494 1146.11" stroke="#73ACCE" stroke-width="27.5" stroke-linecap="butt" stroke-linejoin="miter" stroke-miterlimit="8" stroke-opacity="1" fill="none" fill-rule="evenodd"/><path d="M0 0 842.199 501.053" stroke="#73ACCE" stroke-width="27.5" stroke-linecap="butt" stroke-linejoin="miter" stroke-miterlimit="8" stroke-opacity="1" fill="none" fill-rule="evenodd" transform="matrix(-1 0 0 1 946.2 151)"/><path d="M0 0 592.774 995.11" stroke="#73ACCE" stroke-width="27.5" stroke-linecap="butt" stroke-linejoin="miter" stroke-miterlimit="8" stroke-opacity="1" fill="none" fill-rule="evenodd" transform="matrix(-1 0 0 1 945.774 151)"/><path d="M949 151 957.147 1146.11" stroke="#73ACCE" stroke-width="27.5" stroke-linecap="butt" stroke-linejoin="miter" stroke-miterlimit="8" stroke-opacity="1" fill="none" fill-rule="evenodd"/><path d="M0 0 853.506 500.215" stroke="#73ACCE" stroke-width="27.5" stroke-linecap="butt" stroke-linejoin="miter" stroke-miterlimit="8" stroke-opacity="1" fill="none" fill-rule="evenodd" transform="matrix(-1 0 0 1 1199.51 647)"/><path d="M124 652 1199.05 652" stroke="#73ACCE" stroke-width="27.5" stroke-linecap="butt" stroke-linejoin="miter" stroke-miterlimit="8" stroke-opacity="1" fill="none" fill-rule="evenodd"/><path d="M119 652 956.983 1146.06" stroke="#73ACCE" stroke-width="27.5" stroke-linecap="butt" stroke-linejoin="miter" stroke-miterlimit="8" stroke-opacity="1" fill="none" fill-rule="evenodd"/><path d="M262.5 152.5C262.5 105.556 298.541 67.4999 343 67.4999 387.459 67.4999 423.5 105.556 423.5 152.5 423.5 199.444 387.459 237.5 343 237.5 298.541 237.5 262.5 199.444 262.5 152.5Z" stroke="#73ACCE" stroke-width="6.875" stroke-linecap="butt" stroke-linejoin="miter" stroke-miterlimit="8" stroke-opacity="1" fill="#73ACCE" fill-rule="evenodd" fill-opacity="1"/><path d="M866.5 152.5C866.5 105.556 902.541 67.4999 947 67.4999 991.459 67.4999 1027.5 105.556 1027.5 152.5 1027.5 199.444 991.459 237.5 947 237.5 902.541 237.5 866.5 199.444 866.5 152.5Z" stroke="#73ACCE" stroke-width="6.875" stroke-linecap="butt" stroke-linejoin="miter" stroke-miterlimit="8" stroke-opacity="1" fill="#73ACCE" fill-rule="evenodd" fill-opacity="1"/><path d="M20.5001 647.5C20.5001 600.556 56.5412 562.5 101 562.5 145.459 562.5 181.5 600.556 181.5 647.5 181.5 694.444 145.459 732.5 101 732.5 56.5412 732.5 20.5001 694.444 20.5001 647.5Z" stroke="#73ACCE" stroke-width="6.875" stroke-linecap="butt" stroke-linejoin="miter" stroke-miterlimit="8" stroke-opacity="1" fill="#73ACCE" fill-rule="evenodd" fill-opacity="1"/><path d="M262.5 1146.5C262.5 1099.56 298.541 1061.5 343 1061.5 387.459 1061.5 423.5 1099.56 423.5 1146.5 423.5 1193.44 387.459 1231.5 343 1231.5 298.541 1231.5 262.5 1193.44 262.5 1146.5Z" stroke="#73ACCE" stroke-width="6.875" stroke-linecap="butt" stroke-linejoin="miter" stroke-miterlimit="8" stroke-opacity="1" fill="#73ACCE" fill-rule="evenodd" fill-opacity="1"/><path d="M877.5 1148.5C877.5 1101.56 913.765 1063.5 958.5 1063.5 1003.24 1063.5 1039.5 1101.56 1039.5 1148.5 1039.5 1195.44 1003.24 1233.5 958.5 1233.5 913.765 1233.5 877.5 1195.44 877.5 1148.5Z" stroke="#73ACCE" stroke-width="6.875" stroke-linecap="butt" stroke-linejoin="miter" stroke-miterlimit="8" stroke-opacity="1" fill="#73ACCE" fill-rule="evenodd" fill-opacity="1"/><path d="M1118.5 648.5C1118.5 601.556 1154.77 563.5 1199.5 563.5 1244.24 563.5 1280.5 601.556 1280.5 648.5 1280.5 695.444 1244.24 733.5 1199.5 733.5 1154.77 733.5 1118.5 695.444 1118.5 648.5Z" stroke="#73ACCE" stroke-width="6.875" stroke-linecap="butt" stroke-linejoin="miter" stroke-miterlimit="8" stroke-opacity="1" fill="#73ACCE" fill-rule="evenodd" fill-opacity="1"/><path d="M567.5 652.5C567.5 605.556 603.541 567.5 648 567.5 692.459 567.5 728.5 605.556 728.5 652.5 728.5 699.444 692.459 737.5 648 737.5 603.541 737.5 567.5 699.444 567.5 652.5Z" stroke="#73ACCE" stroke-width="6.875" stroke-linecap="butt" stroke-linejoin="miter" stroke-miterlimit="8" stroke-opacity="1" fill="#73ACCE" fill-rule="evenodd" fill-opacity="1"/><path d="M645.671 308.006C618.156 308.134 591.88 310.486 568.759 314.587 500.649 326.649 488.283 351.894 488.283 398.452L488.283 459.941 649.235 459.941 649.235 480.437 488.283 480.437 427.879 480.437C381.102 480.437 340.142 508.62 327.331 562.234 312.552 623.688 311.897 662.036 327.331 726.204 338.771 773.968 366.094 808.001 412.871 808.001L468.211 808.001 468.211 734.29C468.211 681.037 514.175 634.065 568.759 634.065L729.524 634.065C774.275 634.065 810 597.13 810 552.079L810 398.452C810 354.729 773.203 321.884 729.524 314.587 701.875 309.973 673.186 307.877 645.671 308.006ZM558.629 357.46C575.254 357.46 588.831 371.291 588.831 388.298 588.831 405.244 575.254 418.948 558.629 418.948 541.945 418.948 528.427 405.244 528.427 388.298 528.427 371.291 541.945 357.46 558.629 357.46Z" fill="#366766" fill-rule="evenodd" fill-opacity="1"/><path d="M830.476 480 830.476 551.666C830.476 607.229 783.404 653.993 729.726 653.993L568.639 653.993C524.514 653.993 488 691.785 488 736.005L488 889.685C488 933.422 526.006 959.148 568.639 971.698 619.689 986.716 668.644 989.431 729.726 971.698 770.328 959.931 810.364 936.257 810.364 889.685L810.364 828.175 649.276 828.175 649.276 807.672 810.364 807.672 891.002 807.672C937.876 807.672 955.338 774.956 971.638 725.848 988.48 675.293 987.759 626.676 971.638 561.823 960.053 515.13 937.93 480 891.002 480ZM739.877 869.181C756.595 869.181 770.139 882.889 770.139 899.842 770.139 916.857 756.595 930.689 739.877 930.689 723.218 930.689 709.614 916.857 709.614 899.842 709.614 882.889 723.218 869.181 739.877 869.181Z" fill="#366766" fill-rule="evenodd" fill-opacity="1"/></g></g></svg>